<svg width="17" height="17" viewBox="0 0 17 17" fill="none" xmlns="http://www.w3.org/2000/svg">
<path d="M3.45312 0C2.70937 0 2.125 0.584375 2.125 1.32812V13.5469C2.125 14.2906 2.70937 14.875 3.45312 14.875H15.6719C16.4156 14.875 17 14.2906 17 13.5469V1.32812C17 0.584375 16.4156 0 15.6719 0H3.45312ZM3.45312 0.53125H15.6719C16.1234 0.53125 16.4688 0.876562 16.4688 1.32812V13.5469C16.4688 13.9984 16.1234 14.3437 15.6719 14.3437H3.45312C3.00156 14.3437 2.65625 13.9984 2.65625 13.5469V1.32812C2.65625 0.876562 3.00156 0.53125 3.45312 0.53125ZM0.239062 3.16093C0.10625 3.18749 0 3.29374 0 3.42655V15.6453C0 16.3891 0.584375 16.9734 1.32812 16.9734H13.5469C13.7063 16.9734 13.8125 16.8672 13.8125 16.7078C13.8125 16.5484 13.7063 16.4422 13.5469 16.4422H1.32812C0.876562 16.4422 0.53125 16.0969 0.53125 15.6453V3.42655C0.53125 3.26718 0.425 3.16093 0.265625 3.16093H0.239062ZM9.53594 3.9578C9.40313 3.98436 9.29688 4.09061 9.29688 4.22343V7.1453H6.375C6.34844 7.1453 6.34844 7.1453 6.32187 7.1453C6.1625 7.17186 6.05625 7.27812 6.08281 7.4375C6.10938 7.59687 6.21562 7.70311 6.375 7.67655H9.29688V10.5984C9.29688 10.7578 9.40312 10.8641 9.5625 10.8641C9.72188 10.8641 9.82812 10.7578 9.82812 10.5984V7.67655H12.75C12.9094 7.67655 13.0156 7.5703 13.0156 7.41093C13.0156 7.25155 12.9094 7.1453 12.75 7.1453H9.82812V4.22343C9.82812 4.06405 9.72188 3.9578 9.5625 3.9578H9.53594Z" fill="white"/>
</svg>
