<svg width="16" height="14" viewBox="0 0 16 14" fill="none" xmlns="http://www.w3.org/2000/svg">
<path d="M11.3 1C11.3 0.4 10.9 0 10.3 0H5.7C5.1 0 4.7 0.4 4.7 1V2.7H3.7V14H12.4V2.7H11.4V1H11.3ZM5.3 1C5.3 0.8 5.4 0.7 5.6 0.7H10.3C10.5 0.7 10.6 0.8 10.6 1V2.7H5.3V1Z" fill="white"/>
<path d="M2 2.6998H1.7C0.7 2.6998 0 3.3998 0 4.2998V12.2998C0 13.2998 0.7 13.9998 1.7 13.9998H3V2.9998V2.6998V2.2998H2V2.6998Z" fill="white"/>
<path d="M14.3 2.6998H14V2.2998H13V2.5998V2.9998V13.9998H14.3C15.2 13.9998 16 13.2998 16 12.2998V4.2998C16 3.3998 15.3 2.6998 14.3 2.6998Z" fill="white"/>
</svg>
