<svg width="14" height="14" viewBox="0 0 14 14" fill="none" xmlns="http://www.w3.org/2000/svg">
<path d="M7.92891 7L13.8009 1.12796C14.0663 0.862559 14.0663 0.464455 13.8009 0.199052C13.5355 -0.0663507 13.1374 -0.0663507 12.872 0.199052L7 6.07109L1.12796 0.199052C0.862559 -0.0663507 0.464455 -0.0663507 0.199052 0.199052C-0.0663507 0.464455 -0.0663507 0.862559 0.199052 1.12796L6.07109 7L0.199052 12.872C-0.0663507 13.1374 -0.0663507 13.5355 0.199052 13.8009C0.331754 13.9336 0.49763 14 0.663507 14C0.829384 14 0.995261 13.9336 1.12796 13.8009L7 7.92891L12.872 13.8009C13.0047 13.9336 13.1706 14 13.3365 14C13.5024 14 13.6682 13.9336 13.8009 13.8009C14.0663 13.5355 14.0663 13.1374 13.8009 12.872L7.92891 7Z" fill="#C9C9C9"/>
</svg>
