<svg width="19" height="20" viewBox="0 0 19 20" fill="none" xmlns="http://www.w3.org/2000/svg">
<path d="M0.534323 1.21604C0.330611 1.46502 0.353245 1.84981 0.579592 2.07616L8.50172 9.99829L0.579589 17.9204C0.556955 17.943 0.556955 17.943 0.53432 17.9657C0.307974 18.2373 0.307968 18.6447 0.579584 18.8711C0.8512 19.0974 1.25863 19.0974 1.48498 18.8258L9.4071 10.9037L17.3292 18.8258C17.5782 19.0748 17.9856 19.0748 18.2346 18.8258C18.4836 18.5768 18.4836 18.1694 18.2346 17.9204C18.2346 17.9204 18.2346 17.9204 18.212 17.8978L1.46233 1.14813C1.21335 0.899148 0.80593 0.899148 0.556949 1.14813C0.579583 1.17076 0.556958 1.19341 0.534323 1.21604ZM10.7199 7.78009C10.4936 8.0517 10.4936 8.45912 10.7652 8.68547C11.0368 8.91182 11.4442 8.91182 11.6706 8.64021L18.2346 2.07616C18.4836 1.82717 18.4836 1.41975 18.2346 1.17077C17.9856 0.921788 17.5782 0.921788 17.3292 1.17077C17.3292 1.17077 17.3292 1.17077 17.3066 1.1934L10.7425 7.75745C10.7425 7.75745 10.7425 7.75745 10.7199 7.78009Z" fill="white"/>
</svg>
