<svg width="38" height="37" viewBox="0 0 38 37" fill="none" xmlns="http://www.w3.org/2000/svg">
<path d="M0 26.9911C0 28.3038 1.00462 29.2882 2.34412 29.2882H14.1484V31.5854C12.8926 31.7494 11.4694 33.5543 10.716 34.7849L10.6322 34.949C10.4648 35.4412 10.5485 35.9335 10.8834 36.3437C11.2183 36.7539 11.6369 37 12.1392 37H25.7016C26.2039 37 26.7062 36.7539 26.9573 36.3437C27.2922 35.9335 27.3759 35.4412 27.2085 34.949L27.1248 34.7849C26.3713 33.6364 24.9481 31.6674 23.6923 31.5854V29.2882H35.4966C36.8361 29.2882 37.8407 28.3038 37.8407 26.9911V23.1353H0V26.9911ZM17.3297 24.694H20.511C20.9296 24.694 21.2645 25.1042 21.2645 25.4324C21.2645 25.9246 20.8459 26.1707 20.511 26.1707H17.3297C16.9111 26.1707 16.5762 25.8426 16.5762 25.4324C16.4925 25.0222 16.9111 24.694 17.3297 24.694Z" fill="white"/>
<path d="M35.4129 0H2.34412C1.00462 0 0 1.06652 0 2.29712V4.59423H37.757V2.29712C37.757 1.06652 36.7524 0 35.4129 0Z" fill="white"/>
<path d="M0 21.5765H4.68823V16.1618C4.68823 15.7516 5.10682 15.4235 5.4417 15.4235H8.623C9.04159 15.4235 9.37646 15.8337 9.37646 16.1618V21.5765H12.5578V9.27047C12.5578 8.86027 12.9764 8.53211 13.3112 8.53211H16.4925C16.9111 8.53211 17.246 8.94231 17.246 9.27047V21.5765H20.4273V11.5676C20.4273 11.1574 20.8459 10.8292 21.1808 10.8292H24.3621C24.7807 10.8292 25.1155 11.2394 25.1155 11.5676V21.5765H28.2968V18.4589C28.2968 18.0487 28.7154 17.7206 29.0503 17.7206H32.2316C32.6502 17.7206 32.9851 18.1308 32.9851 18.4589V21.5765H37.6733V6.15295H0V21.5765Z" fill="white"/>
</svg>
