<svg width="51" height="37" viewBox="0 0 51 37" fill="none" xmlns="http://www.w3.org/2000/svg">
<path d="M27.4857 21.2089C25.6357 22.2661 24.2482 22.5964 22.7286 22.5964C18.5 22.5964 14.5357 19.0286 0 9.25V33.0357C0 35.0179 1.98214 37 3.96429 37H40.3036C42.2857 37 44.2679 35.0179 44.2679 33.0357V25.1071C42.4839 25.9661 40.4357 26.4286 38.3214 26.4286C33.9607 26.4286 30.0625 24.3804 27.4857 21.2089Z" fill="white"/>
<path d="M27.4196 3.96436H3.30357C1.32143 3.96436 0 5.28578 0 7.26793C14.2714 17.1126 18.2357 21.1429 22.4643 21.1429C23.7857 21.1429 25.0411 20.8126 26.6268 19.9536C25.2393 17.8394 24.4464 15.2626 24.4464 12.5536C24.4464 9.31614 25.5696 6.34293 27.4196 3.96436Z" fill="white"/>
<path d="M38.3214 0C31.3839 0 25.7678 5.61607 25.7678 12.5536C25.7678 19.4911 31.3839 25.1071 38.3214 25.1071C45.2589 25.1071 50.875 19.4911 50.875 12.5536C50.875 5.61607 45.2589 0 38.3214 0ZM39.6428 19.8214H37V17.1786H39.6428V19.8214ZM39.6428 15.8571H37L36.3393 4.625H40.3035L39.6428 15.8571Z" fill="white"/>
</svg>
