<svg width="22" height="22" viewBox="0 0 22 22" fill="none" xmlns="http://www.w3.org/2000/svg">
<path d="M20.925 10.125H20.223C20.0601 7.85877 19.0861 5.72711 17.4795 4.12051C15.8729 2.51391 13.7412 1.53993 11.475 1.377V0.675C11.475 0.495979 11.4039 0.32429 11.2773 0.197703C11.1507 0.0711159 10.979 0 10.8 0C10.621 0 10.4493 0.0711159 10.3227 0.197703C10.1961 0.32429 10.125 0.495979 10.125 0.675V1.377C7.85877 1.53993 5.72711 2.51391 4.12051 4.12051C2.51391 5.72711 1.53993 7.85877 1.377 10.125H0.675C0.495979 10.125 0.32429 10.1961 0.197703 10.3227C0.0711159 10.4493 0 10.621 0 10.8C0 10.979 0.0711159 11.1507 0.197703 11.2773C0.32429 11.4039 0.495979 11.475 0.675 11.475H1.377C1.53993 13.7412 2.51391 15.8729 4.12051 17.4795C5.72711 19.0861 7.85877 20.0601 10.125 20.223V20.925C10.125 21.104 10.1961 21.2757 10.3227 21.4023C10.4493 21.5289 10.621 21.6 10.8 21.6C10.979 21.6 11.1507 21.5289 11.2773 21.4023C11.4039 21.2757 11.475 21.104 11.475 20.925V20.223C13.7412 20.0601 15.8729 19.0861 17.4795 17.4795C19.0861 15.8729 20.0601 13.7412 20.223 11.475H20.925C21.104 11.475 21.2757 11.4039 21.4023 11.2773C21.5289 11.1507 21.6 10.979 21.6 10.8C21.6 10.621 21.5289 10.4493 21.4023 10.3227C21.2757 10.1961 21.104 10.125 20.925 10.125ZM11.475 18.8696V18.225C11.475 18.046 11.4039 17.8743 11.2773 17.7477C11.1507 17.6211 10.979 17.55 10.8 17.55C10.621 17.55 10.4493 17.6211 10.3227 17.7477C10.1961 17.8743 10.125 18.046 10.125 18.225V18.8696C8.21739 18.7096 6.42809 17.8792 5.07447 16.5255C3.72084 15.1719 2.89038 13.3826 2.73038 11.475H3.375C3.55402 11.475 3.72571 11.4039 3.8523 11.2773C3.97889 11.1507 4.05 10.979 4.05 10.8C4.05 10.621 3.97889 10.4493 3.8523 10.3227C3.72571 10.1961 3.55402 10.125 3.375 10.125H2.73038C2.89038 8.21739 3.72084 6.42809 5.07447 5.07447C6.42809 3.72084 8.21739 2.89038 10.125 2.73038V3.375C10.125 3.55402 10.1961 3.72571 10.3227 3.8523C10.4493 3.97888 10.621 4.05 10.8 4.05C10.979 4.05 11.1507 3.97888 11.2773 3.8523C11.4039 3.72571 11.475 3.55402 11.475 3.375V2.73038C13.3826 2.89038 15.1719 3.72084 16.5255 5.07447C17.8792 6.42809 18.7096 8.21739 18.8696 10.125H18.225C18.046 10.125 17.8743 10.1961 17.7477 10.3227C17.6211 10.4493 17.55 10.621 17.55 10.8C17.55 10.979 17.6211 11.1507 17.7477 11.2773C17.8743 11.4039 18.046 11.475 18.225 11.475H18.8696C18.7096 13.3826 17.8792 15.1719 16.5255 16.5255C15.1719 17.8792 13.3826 18.7096 11.475 18.8696Z" fill="white"/>
<path d="M12.9312 8.12889C12.9312 9.25711 12.0152 10.8289 10.8773 10.8289C9.73944 10.8289 8.83301 9.25711 8.83301 8.12889C8.83301 7.00067 9.74908 6.07495 10.8869 6.07495C12.0248 6.07495 12.9312 6.99103 12.9312 8.12889Z" fill="white"/>
<path d="M12.4296 10.8674C12.0149 11.3978 11.4749 11.7739 10.8771 11.7739C10.2792 11.7739 9.7392 11.3978 9.32455 10.8674C8.01312 11.4074 7.0874 12.5357 7.0874 13.2974C7.0874 14.3389 8.78455 15.1875 10.8867 15.1875C12.9889 15.1875 14.686 14.3389 14.686 13.2974C14.6764 12.5357 13.7603 11.4074 12.4296 10.8674Z" fill="white" stroke="white" stroke-miterlimit="10"/>
</svg>
