<svg width="20" height="20" viewBox="0 0 20 20" fill="none" xmlns="http://www.w3.org/2000/svg">
<path d="M11.3 8.1001H10.9L8.80005 8.5001V8.8001C8.90005 8.8001 9.00005 8.8001 9.00005 8.8001C9.10005 8.8001 9.20005 8.8001 9.30005 8.9001C9.40005 9.0001 9.40005 9.1001 9.40005 9.2001C9.40005 9.4001 9.40005 9.6001 9.30005 10.0001L8.40005 13.6001C8.30005 13.9001 8.30005 14.1001 8.30005 14.3001C8.30005 14.6001 8.40005 14.8001 8.50005 15.0001C8.70005 15.2001 8.90005 15.3001 9.10005 15.3001C9.80005 15.3001 10.5 14.6001 11.1 13.3001L10.9 13.1001C10.6 13.6001 10.4 13.9001 10.2 14.1001C10.1 14.2001 10.1 14.2001 10 14.2001C10 14.2001 9.90005 14.2001 9.90005 14.1001C9.90005 14.0001 9.80005 14.0001 9.80005 13.9001C9.80005 13.8001 9.80005 13.6001 9.90005 13.3001L11.3 8.1001Z" fill="white"/>
<path d="M10.5 4.5C10.1 4.5 9.90005 4.6 9.70005 4.8C9.50005 5.1 9.30005 5.3 9.30005 5.6C9.30005 5.9 9.40005 6.2 9.60005 6.4C9.80005 6.6 10.1 6.7 10.4 6.7C10.7 6.7 11 6.6 11.2 6.4C11.4 6.2 11.5 5.9 11.5 5.6C11.5 5.3 11.4 5 11.2 4.8C11 4.6 10.8 4.5 10.5 4.5Z" fill="white"/>
<path d="M10 1C5 1 1 5 1 10C1 15 5 19 10 19C15 19 19 15 19 10C19 5 14.9 1 10 1ZM9.9 18.5C5.2 18.5 1.4 14.7 1.4 10C1.4 5.3 5.2 1.5 9.9 1.5C14.6 1.5 18.4 5.3 18.4 10C18.4 14.7 14.6 18.5 9.9 18.5Z" fill="white"/>
<path d="M10 19C14.9706 19 19 14.9706 19 10C19 5.02944 14.9706 1 10 1C5.02944 1 1 5.02944 1 10C1 14.9706 5.02944 19 10 19Z" stroke="white" stroke-width="0.5" stroke-miterlimit="10"/>
</svg>
