<svg width="16" height="13" viewBox="0 0 16 13" fill="none" xmlns="http://www.w3.org/2000/svg">
<path d="M14.9773 4.88036L7.82524 11.9904L0.71521 4.88036C0.546925 4.71208 0.294498 4.71208 0.126214 4.88036C-0.0420712 5.04865 -0.0420712 5.30108 0.126214 5.46936L7.53074 12.8739C7.61488 12.958 7.69903 13.0001 7.82524 13.0001C7.95145 13.0001 8.0356 12.958 8.11974 12.8739L15.5243 5.46936C15.6926 5.30108 15.6926 5.04865 15.5243 4.88036C15.3981 4.71208 15.1036 4.71208 14.9773 4.88036Z" fill="black"/>
<path d="M14.9773 0.126214L7.82524 7.23625L0.71521 0.126214C0.546925 -0.0420712 0.294498 -0.0420712 0.126214 0.126214C-0.0420712 0.294498 -0.0420712 0.546926 0.126214 0.71521L7.53074 8.11974C7.61488 8.20388 7.69903 8.24595 7.82524 8.24595C7.95145 8.24595 8.0356 8.20388 8.11974 8.11974L15.5243 0.71521C15.6926 0.546926 15.6926 0.294498 15.5243 0.126214C15.3981 -0.0420712 15.1036 -0.0420712 14.9773 0.126214Z" fill="black"/>
</svg>
