<svg width="20" height="21" viewBox="0 0 20 21" fill="none" xmlns="http://www.w3.org/2000/svg">
<path d="M10.6564 10.7987L18.9607 10.8016C19.336 10.8018 19.6176 10.5204 19.6177 10.145C19.6179 9.76968 19.3365 9.48808 18.9611 9.48795L10.6568 9.48507L10.6597 1.18076C10.6598 0.80542 10.3784 0.52382 10.0031 0.52369C9.62774 0.52356 9.34614 0.804964 9.34601 1.1803L9.34313 9.48462L1.03882 9.48174C0.663481 9.48161 0.381881 9.76301 0.381751 10.1383C0.381686 10.326 0.452004 10.4903 0.569256 10.6076C0.686508 10.7249 0.850694 10.7953 1.03836 10.7954L9.34268 10.7983L9.3398 19.1026C9.33973 19.2903 9.41005 19.4545 9.5273 19.5718C9.64456 19.6892 9.80874 19.7596 9.99641 19.7597C10.3717 19.7598 10.6533 19.4784 10.6535 19.1031L10.6564 10.7987Z" fill="#C9C9C9"/>
</svg>
