<svg width="16" height="13" viewBox="0 0 16 13" fill="none" xmlns="http://www.w3.org/2000/svg">
<g clip-path="url(#clip0)">
<path d="M2.9 12.3001C2.9 12.7001 2.6 13.0001 2.2 13.0001H0.7C0.3 13.0001 0 12.7001 0 12.3001V7.8001C0 7.4001 0.3 7.1001 0.7 7.1001H2.1C2.5 7.1001 2.8 7.4001 2.8 7.8001V12.3001H2.9Z" fill="white"/>
<path d="M7.1 12.3001C7.1 12.7001 6.8 13.0001 6.4 13.0001H5C4.6 13.0001 4.3 12.7001 4.3 12.3001V4.4001C4.3 4.0001 4.6 3.6001 5 3.6001H6.4C6.8 3.6001 7.1 3.9001 7.1 4.3001V12.3001Z" fill="white"/>
<path d="M11.6 12.3C11.6 12.7 11.3 13 10.9 13H9.4C9 13 8.7 12.7 8.7 12.3V0.7C8.7 0.3 9 0 9.4 0H10.8C11.2 0 11.5 0.3 11.5 0.7V12.3H11.6Z" fill="white"/>
<path d="M15.9 12.2998C15.9 12.6998 15.6 12.9998 15.2 12.9998H13.8C13.4 12.9998 13.1 12.6998 13.1 12.2998V4.9998C13.1 4.5998 13.4 4.2998 13.8 4.2998H15.2C15.6 4.2998 15.9 4.5998 15.9 4.9998V12.2998Z" fill="white"/>
</g>
<defs>
<clipPath id="clip0">
<rect width="15.9" height="13" fill="white"/>
</clipPath>
</defs>
</svg>
