<svg width="14" height="13" viewBox="0 0 14 13" fill="none" xmlns="http://www.w3.org/2000/svg">
<path d="M13.3611 13C13.3611 10.6528 11.8444 7.98056 9.75 7.36667C9.35278 7.72778 8.91944 8.01667 8.41389 8.23333C7.87222 8.45 7.29444 8.59444 6.68056 8.59444C6.10278 8.59444 5.48889 8.48611 4.94722 8.23333C4.47778 8.01667 4.00833 7.72778 3.61111 7.36667C1.51667 7.98056 0 10.6528 0 13H13.3611ZM6.68056 7.72778H6.64444C6.175 7.72778 5.70556 7.61944 5.30833 7.43889C3.97222 6.86111 3.03333 5.48889 3.03333 3.9C2.925 1.73333 4.62222 0 6.68056 0C8.73889 0 10.4361 1.73333 10.4361 3.86389C10.4361 5.45278 9.49722 6.825 8.16111 7.40278C7.72778 7.58333 7.29444 7.69167 6.825 7.69167H6.68056V7.72778Z" fill="black"/>
</svg>
