<svg width="15" height="17" viewBox="0 0 15 17" fill="none" xmlns="http://www.w3.org/2000/svg">
<path d="M11.261 3.60636C11.261 5.58732 9.6525 8.34712 7.65461 8.34712C5.65672 8.34712 4.06519 5.58732 4.06519 3.60636C4.06519 1.6254 5.67366 0 7.67155 0C9.66944 0 11.261 1.60847 11.261 3.60636Z" fill="#1a1d2b"/>
<path d="M10.3799 8.41479C9.65188 9.34601 8.70373 10.0063 7.65399 10.0063C6.60425 10.0063 5.6561 9.34601 4.92806 8.41479C2.6254 9.36295 1 11.3439 1 12.6815C1 14.5101 3.9799 16 7.67092 16C11.3619 16 14.3418 14.5101 14.3418 12.6815C14.3249 11.3439 12.7164 9.36295 10.3799 8.41479Z" fill="#1a1d2b" stroke="#1a1d2b" stroke-miterlimit="10"/>
</svg>