<svg width="20" height="20" viewBox="0 0 20 20" fill="none" xmlns="http://www.w3.org/2000/svg">
<path d="M14.4456 2.5C12.8405 0.889831 10.7286 0 8.44773 0C6.16684 0 4.05491 0.889831 2.49208 2.5C0.887012 4.0678 0 6.22881 0 8.47458C0 10.7203 0.887012 12.8814 2.49208 14.4915C4.05491 16.0593 6.20908 16.9492 8.44773 16.9492C10.4752 16.9492 12.4182 16.2288 13.9388 14.8729L18.8807 19.8305C19.0074 19.9576 19.1763 20 19.3453 20C19.5143 20 19.6832 19.9576 19.8099 19.8305C20.0634 19.5763 20.0634 19.1949 19.8099 18.9407L14.868 13.9831C17.698 10.678 17.5713 5.63559 14.4456 2.5ZM3.37909 13.5593C2.02746 12.2034 1.26716 10.3814 1.26716 8.47458C1.26716 6.5678 2.02746 4.74576 3.37909 3.38983C4.73073 2.0339 6.54699 1.27119 8.44773 1.27119C10.3485 1.27119 12.1647 2.0339 13.5164 3.38983C16.3041 6.18644 16.3041 10.7627 13.5164 13.6017C12.1647 14.9576 10.3485 15.7203 8.44773 15.7203C6.54699 15.7203 4.73073 14.9576 3.37909 13.5593Z" fill="#C9C9C9"/>
</svg>
